<?xml version="1.0" encoding="utf-8"?>
<svg width="423px" height="100px" viewBox="0 0 423 100" version="1.1" xmlns:xlink="http://www.w3.org/1999/xlink" xmlns="http://www.w3.org/2000/svg">
  <g id="curiouse" fill="#4A4A4A" transform="translate(132 5)">
    <path d="M115.56 26.208Q116.568 27 119.016 27Q121.464 27 122.544 26.244Q123.624 25.488 123.624 23.4L123.624 22.032Q123.624 20.016 122.616 19.224Q121.608 18.432 119.088 18.432Q116.784 18.432 115.668 19.188Q114.552 19.944 114.552 22.032L114.552 23.4Q114.552 25.416 115.56 26.208ZM28.62 31.824Q25.56 30.96 21.456 30.96Q15.912 30.96 11.628 33.516Q7.344 36.072 4.932 40.572Q2.52 45.072 2.52 50.976Q2.52 56.592 4.788 61.128Q7.056 65.664 11.232 68.292Q15.408 70.92 21.096 70.92Q24.912 70.92 28.188 70.02Q31.464 69.12 33.48 67.644Q35.496 66.168 35.496 64.368Q35.496 62.64 34.488 61.452Q33.48 60.264 31.608 60.264Q30.024 60.264 29.232 60.912Q28.44 61.56 27.432 62.136Q26.568 62.568 25.272 62.784Q23.976 63 22.176 63Q18.936 63 16.452 61.416Q13.968 59.832 12.564 57.132Q11.16 54.432 11.16 50.976Q11.16 47.448 12.528 44.748Q13.896 42.048 16.452 40.464Q19.008 38.88 22.68 38.88Q23.4 38.88 24.876 39.132Q26.352 39.384 27.072 39.816Q27.864 40.248 28.44 40.752Q29.016 41.256 29.772 41.58Q30.528 41.904 31.68 41.904Q33.336 41.904 34.2 40.644Q35.064 39.384 35.064 37.944Q35.064 35.784 33.372 34.236Q31.68 32.688 28.62 31.824ZM88.344 70.2Q86.472 70.2 85.248 68.94Q84.024 67.68 84.024 65.808L84.024 36.072Q84.024 34.2 85.248 32.94Q86.472 31.68 88.344 31.68Q90.216 31.68 91.44 32.94Q92.664 34.2 92.664 36.072L92.664 37.0379Q93.321 35.8979 94.212 34.956Q95.472 33.624 97.056 32.724Q98.64 31.824 100.44 31.392Q102.24 30.96 104.04 30.96Q106.2 30.96 107.676 32.184Q109.152 33.408 109.152 35.064Q109.152 37.44 107.928 38.484Q106.704 39.528 105.264 39.528Q103.896 39.528 102.78 39.024Q101.664 38.52 100.224 38.52Q98.928 38.52 97.596 39.132Q96.264 39.744 95.148 41.04Q94.032 42.336 93.348 44.244Q92.664 46.152 92.664 48.744L92.664 65.808Q92.664 67.68 91.44 68.94Q90.216 70.2 88.344 70.2ZM169.272 50.976Q169.272 56.88 166.644 61.38Q164.016 65.88 159.588 68.4Q155.16 70.92 149.688 70.92Q144.216 70.92 139.788 68.4Q135.36 65.88 132.732 61.38Q130.104 56.88 130.104 50.976Q130.104 45.072 132.732 40.572Q135.36 36.072 139.788 33.516Q144.216 30.96 149.688 30.96Q155.16 30.96 159.588 33.516Q164.016 36.072 166.644 40.572Q169.272 45.072 169.272 50.976ZM216.504 64.224Q215.784 63.216 215.856 61.632Q215.928 60.048 217.728 58.896Q218.88 58.176 220.176 58.284Q221.472 58.392 222.696 59.616Q224.784 61.704 227.088 62.856Q229.392 64.008 232.848 64.008Q233.928 63.936 235.224 63.684Q236.52 63.432 237.492 62.532Q238.464 61.632 238.464 59.76Q238.464 58.176 237.384 57.24Q236.304 56.304 234.54 55.656Q232.776 55.008 230.616 54.432Q228.384 53.784 226.044 52.992Q223.704 52.2 221.76 50.94Q219.816 49.68 218.592 47.592Q217.368 45.504 217.368 42.336Q217.368 38.736 219.384 36.216Q221.4 33.696 224.604 32.328Q227.808 30.96 231.336 30.96Q233.568 30.96 236.016 31.5Q238.464 32.04 240.696 33.228Q242.928 34.416 244.44 36.36Q245.232 37.44 245.376 38.952Q245.52 40.464 244.008 41.688Q242.928 42.552 241.488 42.444Q240.048 42.336 239.112 41.472Q237.888 39.888 235.836 38.952Q233.784 38.016 231.12 38.016Q230.04 38.016 228.78 38.268Q227.52 38.52 226.584 39.348Q225.648 40.176 225.648 41.976Q225.648 43.632 226.728 44.604Q227.808 45.576 229.644 46.188Q231.48 46.8 233.568 47.376Q235.728 47.952 237.96 48.744Q240.192 49.536 242.064 50.832Q243.936 52.128 245.088 54.18Q246.24 56.232 246.24 59.4Q246.24 63.072 244.08 65.664Q241.92 68.256 238.68 69.588Q235.44 70.92 232.056 70.92Q227.808 70.92 223.56 69.444Q219.312 67.968 216.504 64.224ZM260.604 68.364Q265.104 70.92 271.224 70.92Q274.824 70.92 278.208 69.732Q281.592 68.544 283.464 66.96Q285.48 65.376 285.48 63.432Q285.48 61.992 284.436 60.912Q283.392 59.832 281.808 59.832Q280.656 59.832 279.36 60.48Q278.568 60.912 277.596 61.524Q276.624 62.136 275.04 62.568Q273.456 63 270.792 63Q267.912 63 265.356 61.596Q262.8 60.192 261.18 57.492Q260.233 55.9132 259.839 53.928L283.608 53.928Q285.336 53.928 286.632 52.848Q287.928 51.768 288 50.04Q288 46.152 286.524 42.696Q285.048 39.24 282.528 36.612Q280.008 33.984 276.732 32.472Q273.456 30.96 269.784 30.96Q265.032 30.96 260.784 33.408Q256.536 35.856 253.908 40.428Q251.28 45 251.28 51.48Q251.28 57.024 253.692 61.416Q256.104 65.808 260.604 68.364ZM259.915 46.728Q260.09 45.8331 260.352 45.072Q261.144 42.768 262.512 41.4Q263.88 40.032 265.752 39.456Q267.624 38.88 269.784 38.88Q272.016 38.88 273.996 39.852Q275.976 40.824 277.308 42.48Q278.64 44.136 278.784 46.224L278.784 46.728L259.915 46.728ZM73.44 32.94Q72.216 31.68 70.344 31.68Q68.472 31.68 67.248 32.94Q66.024 34.2 66.024 36.072L66.024 54.36Q66.024 58.752 64.08 60.876Q62.136 63 58.176 63Q54.288 63 52.344 60.876Q50.4 58.752 50.4 54.36L50.4 36.072Q50.4 34.2 49.176 32.94Q47.952 31.68 46.08 31.68Q44.208 31.68 42.984 32.94Q41.76 34.2 41.76 36.072L41.76 54.36Q41.76 61.992 45.972 66.456Q50.184 70.92 58.176 70.92Q66.168 70.92 70.416 66.456Q74.664 61.992 74.664 54.36L74.664 36.072Q74.664 34.2 73.44 32.94ZM122.184 68.94Q123.408 67.68 123.408 65.808L123.408 36.072Q123.408 34.2 122.184 32.94Q120.96 31.68 119.088 31.68Q117.216 31.68 115.992 32.94Q114.768 34.2 114.768 36.072L114.768 65.808Q114.768 67.68 115.992 68.94Q117.216 70.2 119.088 70.2Q120.96 70.2 122.184 68.94ZM208.152 32.94Q206.928 31.68 205.056 31.68Q203.184 31.68 201.96 32.94Q200.736 34.2 200.736 36.072L200.736 54.36Q200.736 58.752 198.792 60.876Q196.848 63 192.888 63Q189 63 187.056 60.876Q185.112 58.752 185.112 54.36L185.112 36.072Q185.112 34.2 183.888 32.94Q182.664 31.68 180.792 31.68Q178.92 31.68 177.696 32.94Q176.472 34.2 176.472 36.072L176.472 54.36Q176.472 61.992 180.684 66.456Q184.896 70.92 192.888 70.92Q200.88 70.92 205.128 66.456Q209.376 61.992 209.376 54.36L209.376 36.072Q209.376 34.2 208.152 32.94ZM160.632 50.976Q160.632 47.304 159.156 44.604Q157.68 41.904 155.196 40.392Q152.712 38.88 149.688 38.88Q146.664 38.88 144.18 40.392Q141.696 41.904 140.22 44.604Q138.744 47.304 138.744 50.976Q138.744 54.576 140.22 57.276Q141.696 59.976 144.18 61.488Q146.664 63 149.688 63Q152.712 63 155.196 61.488Q157.68 59.976 159.156 57.276Q160.632 54.576 160.632 50.976Z" />
  </g>
  <path d="M23.999 0L76.001 0Q76.5901 0 77.1786 0.0289079Q77.767 0.0578157 78.3533 0.115562Q78.9396 0.173308 79.5224 0.259753Q80.1051 0.346198 80.6829 0.461134Q81.2608 0.57607 81.8323 0.719221Q82.4037 0.862371 82.9675 1.03339Q83.5313 1.20441 84.086 1.40289Q84.6407 1.60136 85.185 1.82682Q85.7293 2.05227 86.2619 2.30416Q86.7945 2.55605 87.314 2.83377Q87.8336 3.11149 88.3389 3.41437Q88.8442 3.71725 89.3341 4.04456Q89.824 4.37187 90.2972 4.72283Q90.7704 5.07378 91.2258 5.44753Q91.6812 5.82128 92.1177 6.21692Q92.5543 6.61256 92.9708 7.02915Q93.3874 7.44574 93.7831 7.88226Q94.1787 8.31879 94.5525 8.7742Q94.9262 9.22962 95.2772 9.70282Q95.6281 10.176 95.9554 10.6659Q96.2827 11.1557 96.5856 11.6611Q96.8885 12.1664 97.1662 12.686Q97.4439 13.2055 97.6958 13.7381Q97.9477 14.2707 98.1732 14.815Q98.3986 15.3593 98.5971 15.914Q98.7956 16.4687 98.9666 17.0325Q99.1376 17.5962 99.2808 18.1677Q99.4239 18.7392 99.5389 19.317Q99.6538 19.8949 99.7402 20.4776Q99.8267 21.0604 99.8844 21.6467Q99.9422 22.233 99.9711 22.8214Q100 23.4099 100 23.999L100 76.001Q100 76.5901 99.9711 77.1786Q99.9422 77.767 99.8844 78.3533Q99.8267 78.9396 99.7402 79.5224Q99.6538 80.1051 99.5389 80.6829Q99.4239 81.2608 99.2808 81.8323Q99.1376 82.4037 98.9666 82.9675Q98.7956 83.5313 98.5971 84.086Q98.3986 84.6407 98.1732 85.185Q97.9477 85.7293 97.6958 86.2619Q97.4439 86.7945 97.1662 87.314Q96.8885 87.8336 96.5856 88.3389Q96.2827 88.8442 95.9554 89.3341Q95.6281 89.824 95.2772 90.2972Q94.9262 90.7704 94.5525 91.2258Q94.1787 91.6812 93.7831 92.1177Q93.3874 92.5543 92.9708 92.9708Q92.5543 93.3874 92.1177 93.7831Q91.6812 94.1787 91.2258 94.5525Q90.7704 94.9262 90.2972 95.2772Q89.824 95.6281 89.3341 95.9554Q88.8442 96.2827 88.3389 96.5856Q87.8336 96.8885 87.314 97.1662Q86.7945 97.4439 86.2619 97.6958Q85.7293 97.9477 85.185 98.1732Q84.6407 98.3986 84.086 98.5971Q83.5313 98.7956 82.9675 98.9666Q82.4037 99.1376 81.8323 99.2808Q81.2608 99.4239 80.6829 99.5389Q80.1051 99.6538 79.5224 99.7402Q78.9396 99.8267 78.3533 99.8844Q77.767 99.9422 77.1786 99.9711Q76.5901 100 76.001 100L23.999 100Q23.4099 100 22.8214 99.9711Q22.233 99.9422 21.6467 99.8844Q21.0604 99.8267 20.4776 99.7402Q19.8949 99.6538 19.317 99.5389Q18.7392 99.4239 18.1677 99.2808Q17.5962 99.1376 17.0325 98.9666Q16.4687 98.7956 15.914 98.5971Q15.3593 98.3986 14.815 98.1732Q14.2707 97.9477 13.7381 97.6958Q13.2055 97.4439 12.686 97.1662Q12.1664 96.8885 11.6611 96.5856Q11.1557 96.2827 10.6659 95.9554Q10.176 95.6281 9.70282 95.2772Q9.22962 94.9262 8.7742 94.5525Q8.31879 94.1787 7.88226 93.7831Q7.44574 93.3874 7.02915 92.9708Q6.61256 92.5543 6.21692 92.1177Q5.82128 91.6812 5.44753 91.2258Q5.07378 90.7704 4.72283 90.2972Q4.37187 89.824 4.04456 89.3341Q3.71725 88.8442 3.41437 88.3389Q3.11149 87.8336 2.83377 87.314Q2.55605 86.7945 2.30416 86.2619Q2.05227 85.7293 1.82682 85.185Q1.60136 84.6407 1.40289 84.086Q1.20441 83.5313 1.03339 82.9675Q0.862371 82.4037 0.719221 81.8323Q0.57607 81.2608 0.461134 80.6829Q0.346198 80.1051 0.259753 79.5224Q0.173308 78.9396 0.115562 78.3533Q0.0578157 77.767 0.0289079 77.1786Q0 76.5901 0 76.001L0 23.999Q0 23.4099 0.0289079 22.8214Q0.0578157 22.233 0.115562 21.6467Q0.173308 21.0604 0.259753 20.4776Q0.346198 19.8949 0.461134 19.317Q0.57607 18.7392 0.719221 18.1677Q0.862371 17.5962 1.03339 17.0325Q1.20441 16.4687 1.40289 15.914Q1.60136 15.3593 1.82682 14.815Q2.05227 14.2707 2.30416 13.7381Q2.55605 13.2055 2.83377 12.686Q3.11149 12.1664 3.41437 11.6611Q3.71725 11.1557 4.04456 10.6659Q4.37187 10.176 4.72283 9.70282Q5.07378 9.22962 5.44753 8.7742Q5.82128 8.31879 6.21692 7.88226Q6.61256 7.44574 7.02915 7.02915Q7.44574 6.61256 7.88226 6.21692Q8.31879 5.82128 8.7742 5.44753Q9.22962 5.07378 9.70282 4.72283Q10.176 4.37187 10.6659 4.04456Q11.1557 3.71725 11.6611 3.41437Q12.1664 3.11149 12.686 2.83377Q13.2055 2.55605 13.7381 2.30416Q14.2707 2.05227 14.815 1.82682Q15.3593 1.60136 15.914 1.40289Q16.4687 1.20441 17.0325 1.03339Q17.5962 0.862371 18.1677 0.719221Q18.7392 0.57607 19.317 0.461134Q19.8949 0.346198 20.4776 0.259753Q21.0604 0.173308 21.6467 0.115562Q22.233 0.0578157 22.8214 0.0289079Q23.4099 0 23.999 0Z" id="Прямоугольник" fill="#206BC4" fill-rule="evenodd" stroke="none" />
  <path d="M23.5999 39.5704L26.5999 39.5704C28.2568 39.5704 29.5999 40.9135 29.5999 42.5704C29.5999 44.2272 28.2568 45.5704 26.5999 45.5704C24.9431 45.5704 23.5999 44.2272 23.5999 42.5704L23.5999 35.0704C23.5999 31.7567 26.2862 29.0704 29.5999 29.0704" id="Фигура" fill="none" fill-rule="evenodd" stroke="#FFFFFF" stroke-width="6" stroke-linecap="round" stroke-linejoin="round" />
  <path d="M41.5999 39.5704L44.5999 39.5704C46.2568 39.5704 47.5999 40.9135 47.5999 42.5704C47.5999 44.2272 46.2568 45.5704 44.5999 45.5704C42.9431 45.5704 41.5999 44.2272 41.5999 42.5704L41.5999 35.0704C41.5999 31.7567 44.2862 29.0704 47.5999 29.0704" id="Фигура" fill="none" fill-rule="evenodd" stroke="#FFFFFF" stroke-width="6" stroke-linecap="round" stroke-linejoin="round" />
  <path d="M77.5999 33.5704L59.5999 33.5704" id="Линия" fill="none" fill-rule="evenodd" stroke="#FFFFFF" stroke-width="6" stroke-linecap="round" stroke-linejoin="round" />
  <path d="M59.5999 45.5704L77.5999 45.5704" id="Линия" fill="none" fill-rule="evenodd" stroke="#FFFFFF" stroke-width="6" stroke-linecap="round" stroke-linejoin="round" />
  <path d="M77.5999 69.5704L32.5999 69.5704" id="Линия" fill="none" fill-rule="evenodd" stroke="#FFFFFF" stroke-width="6" stroke-linecap="round" stroke-linejoin="round" />
  <path d="M32.5999 57.5704L77.5999 57.5704" id="Линия" fill="none" fill-rule="evenodd" stroke="#FFFFFF" stroke-width="6" stroke-linecap="round" stroke-linejoin="round" />
</svg>