<?xml version="1.0" encoding="utf-8"?>
<svg width="2470.002px" height="512.0021px" viewBox="0 0 2470.002 512.0021" version="1.1" xmlns:xlink="http://www.w3.org/1999/xlink" xmlns="http://www.w3.org/2000/svg">
  <g id="Masonex" fill="#2E2E30" transform="translate(648.0021 7)">
    <path d="M41.58 396C38.5 396 35.98 395.02 34.02 393.06Q31.08 390.12 31.08 385.5L31.08 112.5Q31.08 107.88 34.02 104.94Q36.96 102 41.58 102L81.06 102Q87.36 102 90.51 105.36Q93.66 108.72 94.5 110.4L172.2 252.36L249.9 110.4Q250.74 108.72 253.89 105.36Q257.04 102 263.34 102L302.4 102Q307.02 102 309.96 104.94Q312.9 107.88 312.9 112.5L312.9 385.5Q312.9 390.12 309.96 393.06C308 395.02 305.48 396 302.4 396L259.56 396C256.76 396 254.38 395.02 252.42 393.06Q249.48 390.12 249.48 385.5L249.48 216.24L196.14 315.78Q194.46 319.56 191.1 322.5Q187.74 325.44 181.86 325.44L162.12 325.44Q156.66 325.44 153.3 322.5Q149.94 319.56 147.84 315.78L94.92 216.24L94.92 385.5Q94.92 390.12 91.98 393.06C90.02 395.02 87.5 396 84.42 396L41.58 396ZM434.7 400.2Q412.44 400.2 394.8 391.59Q377.16 382.98 366.66 368.28Q356.16 353.58 356.16 335.52Q356.16 305.7 380.31 288.48Q404.46 271.26 443.94 264.96L498.96 256.98L498.96 249.42Q498.96 233.04 491.4 224.22Q483.84 215.4 464.94 215.4Q451.08 215.4 442.89 220.86Q434.7 226.32 430.08 235.14Q426.72 240.6 420 240.6L380.1 240.6Q375.48 240.6 372.96 237.87Q370.44 235.14 370.86 231.36Q370.86 224.22 376.32 214.56Q381.78 204.9 393.12 195.45Q404.46 186 422.31 179.7Q440.16 173.4 465.36 173.4Q491.82 173.4 510.72 179.7Q529.62 186 541.17 197.34Q552.72 208.68 557.97 223.59Q563.22 238.5 563.22 255.72L563.22 385.5Q563.22 390.12 560.28 393.06C558.32 395.02 555.94 396 553.14 396L511.56 396C508.76 396 506.38 395.02 504.42 393.06Q501.48 390.12 501.48 385.5L501.48 369.96Q496.02 377.94 486.78 384.87Q477.54 391.8 464.73 396Q451.92 400.2 434.7 400.2ZM655.41 394.11Q674.1 400.2 700.14 400.2Q732.9 400.2 755.58 391.59Q778.26 382.98 789.81 367.65Q801.36 352.32 801.36 332.58Q801.36 317.46 794.22 304.23Q787.08 291 770.28 280.92Q753.48 270.84 724.92 265.8Q700.56 261.18 689.01 256.98Q677.46 252.78 673.68 247.74Q669.9 242.7 669.9 236.82Q669.9 227.58 677.25 221.49Q684.6 215.4 698.04 215.4Q709.38 215.4 716.52 218.76Q723.66 222.12 728.91 226.74Q734.16 231.36 739.2 234.3Q740.46 235.56 742.14 236.4Q743.82 237.24 745.92 237.24L783.3 237.24Q787.08 237.24 790.02 234.3Q792.96 231.36 792.54 226.74Q792.12 220.02 786.03 210.99Q779.94 201.96 768.18 193.35Q756.42 184.74 738.99 179.07Q721.56 173.4 698.46 173.4Q668.22 173.4 648.06 183.27Q627.9 193.14 617.61 208.26Q607.32 223.38 607.32 239.76Q607.32 257.82 615.3 270.63Q623.28 283.44 639.24 291.84Q655.2 300.24 677.88 305.28Q701.82 310.32 714 314.52Q726.18 318.72 730.38 323.76Q734.58 328.8 734.58 336.36Q734.58 346.86 725.13 352.53Q715.68 358.2 701.82 358.2Q690.48 358.2 682.5 354.84Q674.52 351.48 668.85 346.65Q663.18 341.82 657.72 338.04Q656.04 336.36 654.99 335.94Q653.94 335.52 652.26 335.52L611.52 335.52Q608.16 335.52 604.8 338.46Q601.44 341.4 601.86 346.02Q602.28 352.32 607.95 361.35Q613.62 370.38 625.17 379.2Q636.72 388.02 655.41 394.11ZM942.06 400.2Q907.2 400.2 883.68 388.65Q860.16 377.1 847.77 355.68Q835.38 334.26 834.12 305.7Q833.7 297.3 833.7 286.59Q833.7 275.88 834.12 267.9Q835.38 238.92 848.4 217.71Q861.42 196.5 884.94 184.95Q908.46 173.4 942.06 173.4Q975.24 173.4 998.76 184.95Q1022.28 196.5 1035.3 217.71Q1048.32 238.92 1050 267.9Q1050.42 275.88 1050.42 286.59Q1050.42 297.3 1050 305.7Q1048.32 334.26 1035.93 355.68Q1023.54 377.1 1000.02 388.65Q976.5 400.2 942.06 400.2ZM1097.25 393.06C1099.35 395.02 1101.8 396 1104.6 396L1149.12 396C1152.2 396 1154.72 395.02 1156.68 393.06Q1159.62 390.12 1159.62 385.5L1159.62 270.84Q1159.62 248.58 1171.17 236.19Q1182.72 223.8 1202.46 223.8Q1223.04 223.8 1233.75 236.19Q1244.46 248.58 1244.46 270.84L1244.46 385.5Q1244.46 390.12 1247.4 393.06C1249.36 395.02 1251.88 396 1254.96 396L1299.48 396C1302.56 396 1305.08 395.02 1307.04 393.06Q1309.98 390.12 1309.98 385.5L1309.98 268.32Q1309.98 238.08 1299.48 216.87Q1288.98 195.66 1270.08 184.53Q1251.18 173.4 1226.4 173.4Q1202.04 173.4 1184.61 182.22Q1167.18 191.04 1156.26 204.48L1156.26 188.1Q1156.26 183.48 1153.32 180.54Q1150.38 177.6 1145.76 177.6L1104.6 177.6Q1100.4 177.6 1097.25 180.54Q1094.1 183.48 1094.1 188.1L1094.1 385.5Q1094.1 390.12 1097.25 393.06ZM1457.82 400.2Q1409.52 400.2 1381.17 373.32Q1352.82 346.44 1351.14 295.2L1351.14 277.56Q1352.82 244.8 1365.84 221.49Q1378.86 198.18 1402.38 185.79Q1425.9 173.4 1457.4 173.4Q1493.1 173.4 1516.62 187.89Q1540.14 202.38 1552.11 227.37Q1564.08 252.36 1564.08 284.7L1564.08 294.36Q1564.08 298.56 1561.14 301.71Q1558.2 304.86 1553.58 304.86L1416.66 304.86L1416.66 307.8Q1417.08 321.24 1421.7 332.37Q1426.32 343.5 1435.35 350.22Q1444.38 356.94 1457.4 356.94Q1467.48 356.94 1474.2 353.79Q1480.92 350.64 1485.33 346.65Q1489.74 342.66 1491.84 339.72Q1495.62 335.1 1497.93 334.05Q1500.24 333 1504.86 333L1549.38 333Q1553.16 333 1555.89 335.52Q1558.62 338.04 1558.2 341.82Q1557.78 348.96 1551.27 358.83Q1544.76 368.7 1532.16 378.15Q1519.56 387.6 1500.87 393.9Q1482.18 400.2 1457.82 400.2ZM1590.75 393.27C1592.57 395.09 1594.74 396 1597.26 396L1641.78 396Q1646.82 396 1649.34 393.48L1653.54 389.28L1700.58 327.12L1746.78 389.28Q1748.46 391.38 1750.98 393.69C1752.66 395.23 1755.18 396 1758.54 396L1804.32 396C1806.84 396 1809.01 395.09 1810.83 393.27Q1813.56 390.54 1813.56 386.76Q1813.56 385.08 1813.14 383.4Q1812.72 381.72 1811.04 380.04L1739.64 284.28L1806 193.56Q1807.26 191.88 1807.89 190.2Q1808.52 188.52 1808.52 186.84Q1808.52 183.06 1805.79 180.33Q1803.06 177.6 1799.28 177.6L1757.28 177.6Q1751.82 177.6 1749.3 180.33Q1746.78 183.06 1745.1 185.16L1701.84 243.12L1659 184.74Q1657.32 182.64 1654.8 180.12Q1652.28 177.6 1646.82 177.6L1603.14 177.6Q1599.36 177.6 1596.63 180.33Q1593.9 183.06 1593.9 186.84Q1593.9 188.52 1594.53 190.2Q1595.16 191.88 1596.42 193.56L1661.52 283.86L1590.54 380.04Q1589.28 381.72 1588.65 383.61Q1588.02 385.5 1588.02 386.76Q1588.02 390.54 1590.75 393.27ZM1416.66 266.22L1498.56 266.22L1498.56 264.96Q1498.56 250.26 1493.73 239.13Q1488.9 228 1479.66 221.7Q1470.42 215.4 1457.4 215.4Q1444.38 215.4 1435.35 221.7Q1426.32 228 1421.49 239.13Q1416.66 250.26 1416.66 264.96L1416.66 266.22ZM942.06 353.58Q962.64 353.58 972.93 340.98Q983.22 328.38 984.48 303.6Q984.9 297.3 984.9 286.8Q984.9 276.3 984.48 270Q983.22 245.64 972.93 232.83Q962.64 220.02 942.06 220.02Q921.48 220.02 910.98 232.83Q900.48 245.64 899.22 270Q898.8 276.3 898.8 286.8Q898.8 297.3 899.22 303.6Q900.48 328.38 910.98 340.98Q921.48 353.58 942.06 353.58ZM451.5 356.52Q465.36 356.52 476.28 350.64Q487.2 344.76 493.5 332.58Q499.8 320.4 499.8 301.92L499.8 294.78L460.74 301.08Q438.48 304.86 427.98 312.42Q417.48 319.98 417.48 330.9Q417.48 338.88 422.31 344.55Q427.14 350.22 434.91 353.37Q442.68 356.52 451.5 356.52Z" />
  </g>
  <path d="M512.002 440.003L512.002 71.999Q512.002 70.2315 511.915 68.4662Q511.829 66.7008 511.655 64.9419Q511.482 63.1829 511.223 61.4346Q510.963 59.6862 510.619 57.9527Q510.274 56.2192 509.844 54.5047Q509.415 52.7902 508.902 51.0988Q508.389 49.4074 507.793 47.7433Q507.198 46.0791 506.521 44.4462Q505.845 42.8132 505.089 41.2155Q504.334 39.6177 503.501 38.0589Q502.667 36.5001 501.759 34.9841Q500.85 33.4681 499.868 31.9985Q498.886 30.5289 497.833 29.1093Q496.78 27.6896 495.659 26.3233Q494.538 24.957 493.351 23.6474Q492.164 22.3378 490.914 21.088Q489.664 19.8382 488.355 18.6513Q487.045 17.4643 485.679 16.343Q484.312 15.2217 482.893 14.1689Q481.473 13.116 480.004 12.134Q478.534 11.1521 477.018 10.2434Q475.502 9.33473 473.943 8.50155Q472.384 7.66837 470.787 6.91268Q469.189 6.15698 467.556 5.4806Q465.923 4.80421 464.259 4.20877Q462.595 3.61332 460.903 3.10025Q459.212 2.58718 457.497 2.15772Q455.783 1.72826 454.049 1.38344Q452.316 1.03862 450.567 0.779281Q448.819 0.519938 447.06 0.346695Q445.301 0.173452 443.536 0.086726Q441.771 0 440.003 0L71.999 0Q70.2315 0 68.4662 0.0867259Q66.7008 0.173452 64.9419 0.346695Q63.1829 0.519938 61.4346 0.77928Q59.6862 1.03862 57.9527 1.38344Q56.2192 1.72826 54.5047 2.15772Q52.7902 2.58718 51.0988 3.10025Q49.4074 3.61332 47.7433 4.20877Q46.0791 4.80421 44.4462 5.4806Q42.8132 6.15698 41.2155 6.91267Q39.6177 7.66837 38.0589 8.50155Q36.5001 9.33473 34.9841 10.2434Q33.4681 11.1521 31.9985 12.134Q30.5289 13.116 29.1092 14.1689Q27.6896 15.2217 26.3233 16.343Q24.957 17.4643 23.6474 18.6513Q22.3378 19.8382 21.088 21.088Q19.8382 22.3378 18.6513 23.6474Q17.4643 24.957 16.343 26.3233Q15.2217 27.6896 14.1689 29.1092Q13.116 30.5289 12.134 31.9985Q11.1521 33.4681 10.2434 34.9841Q9.33473 36.5001 8.50155 38.0589Q7.66837 39.6177 6.91267 41.2154Q6.15698 42.8132 5.4806 44.4461Q4.80421 46.0791 4.20877 47.7432Q3.61332 49.4074 3.10025 51.0987Q2.58718 52.7901 2.15772 54.5046Q1.72826 56.2191 1.38344 57.9526Q1.03862 59.6861 0.77928 61.4345Q0.519938 63.1828 0.346695 64.9418Q0.173452 66.7007 0.0867259 68.4661Q0 70.2314 0 71.9989L0 440.003Q0 441.77 0.0867258 443.536Q0.173452 445.301 0.346694 447.06Q0.519937 448.819 0.779279 450.567Q1.03862 452.316 1.38344 454.049Q1.72826 455.783 2.15772 457.497Q2.58718 459.212 3.10025 460.903Q3.61332 462.594 4.20876 464.259Q4.80421 465.923 5.48059 467.556Q6.15697 469.189 6.91266 470.786Q7.66836 472.384 8.50154 473.943Q9.33472 475.502 10.2434 477.018Q11.152 478.534 12.134 480.003Q13.116 481.473 14.1688 482.893Q15.2217 484.312 16.343 485.679Q17.4643 487.045 18.6512 488.354Q19.8382 489.664 21.088 490.914Q22.3378 492.164 23.6474 493.351Q24.957 494.538 26.3233 495.659Q27.6896 496.78 29.1092 497.833Q30.5289 498.886 31.9985 499.868Q33.4681 500.85 34.9841 501.758Q36.5001 502.667 38.0589 503.5Q39.6176 504.334 41.2154 505.089Q42.8132 505.845 44.4461 506.521Q46.079 507.198 47.7432 507.793Q49.4074 508.389 51.0987 508.902Q52.7901 509.415 54.5046 509.844Q56.2191 510.274 57.9526 510.618Q59.6861 510.963 61.4345 511.223Q63.1828 511.482 64.9418 511.655Q66.7007 511.829 68.4661 511.915Q70.2314 512.002 71.9989 512.002L440.003 512.002Q441.771 512.002 443.536 511.915Q445.301 511.828 447.06 511.655Q448.819 511.482 450.567 511.223Q452.316 510.963 454.049 510.618Q455.783 510.274 457.497 509.844Q459.212 509.415 460.903 508.902Q462.595 508.389 464.259 507.793Q465.923 507.198 467.556 506.521Q469.189 505.845 470.787 505.089Q472.384 504.334 473.943 503.5Q475.502 502.667 477.018 501.758Q478.534 500.85 480.004 499.868Q481.473 498.886 482.893 497.833Q484.312 496.78 485.679 495.659Q487.045 494.538 488.355 493.351Q489.664 492.164 490.914 490.914Q492.164 489.664 493.351 488.354Q494.538 487.045 495.659 485.679Q496.78 484.312 497.833 482.893Q498.886 481.473 499.868 480.003Q500.85 478.534 501.759 477.018Q502.667 475.502 503.5 473.943Q504.334 472.384 505.089 470.786Q505.845 469.189 506.521 467.556Q507.198 465.923 507.793 464.259Q508.389 462.594 508.902 460.903Q509.415 459.212 509.844 457.497Q510.274 455.783 510.619 454.049Q510.963 452.316 511.223 450.567Q511.482 448.819 511.655 447.06Q511.829 445.301 511.915 443.536Q512.002 441.77 512.002 440.003ZM280.745 241.813L226.707 130.65Q226.539 130.304 226.359 129.965Q226.179 129.625 225.987 129.292Q225.795 128.959 225.592 128.632Q225.389 128.306 225.174 127.987Q224.959 127.668 224.734 127.357Q224.508 127.046 224.272 126.742Q224.035 126.439 223.789 126.144Q223.542 125.85 223.285 125.564Q223.028 125.278 222.761 125.001Q222.494 124.724 222.218 124.457Q221.942 124.19 221.656 123.932Q221.371 123.675 221.076 123.427Q220.782 123.18 220.479 122.943Q220.177 122.706 219.866 122.48Q219.555 122.254 219.236 122.038Q218.918 121.823 218.592 121.619Q218.266 121.415 217.933 121.223Q217.6 121.031 217.261 120.85Q216.922 120.669 216.576 120.5Q216.231 120.332 215.88 120.175Q215.528 120.019 215.172 119.875Q214.816 119.73 214.454 119.599Q214.093 119.467 213.728 119.348Q213.362 119.229 212.993 119.123Q212.623 119.017 212.25 118.924Q211.877 118.831 211.501 118.751Q211.125 118.671 210.746 118.604Q210.368 118.537 209.987 118.484Q209.606 118.43 209.224 118.39Q208.842 118.349 208.458 118.323Q208.075 118.296 207.691 118.282Q207.306 118.269 206.922 118.269Q206.537 118.269 206.153 118.282Q205.769 118.296 205.385 118.323Q205.002 118.349 204.62 118.39Q204.237 118.43 203.857 118.484Q203.476 118.537 203.097 118.604Q202.719 118.671 202.343 118.751Q201.967 118.831 201.594 118.924Q201.221 119.017 200.851 119.123Q200.482 119.229 200.116 119.348Q199.751 119.467 199.389 119.599Q199.028 119.73 198.672 119.875Q198.315 120.019 197.964 120.175Q197.613 120.332 197.268 120.5Q196.922 120.669 196.583 120.85Q196.243 121.031 195.911 121.223Q195.578 121.415 195.252 121.619Q194.926 121.823 194.607 122.038Q194.289 122.254 193.978 122.48Q193.667 122.706 193.364 122.943Q193.062 123.18 192.767 123.427Q192.473 123.675 192.188 123.932Q191.902 124.19 191.626 124.457Q191.349 124.724 191.083 125.001Q190.816 125.278 190.559 125.564Q190.302 125.85 190.055 126.144Q189.808 126.439 189.572 126.742Q189.336 127.046 189.11 127.357Q188.884 127.668 188.67 127.987Q188.455 128.306 188.252 128.632Q188.048 128.959 187.857 129.292Q187.665 129.625 187.485 129.965Q187.305 130.304 187.137 130.65L113.46 282.214Q112.025 284.613 110.755 287.104Q109.485 289.595 108.386 292.165Q107.287 294.736 106.363 297.374Q105.439 300.013 104.695 302.708Q103.951 305.403 103.39 308.142Q102.829 310.88 102.453 313.651Q102.078 316.421 101.89 319.21Q101.702 322 101.702 324.796L101.702 343.781Q101.702 345.352 101.779 346.921Q101.856 348.49 102.01 350.054Q102.164 351.617 102.394 353.171Q102.625 354.725 102.931 356.266Q103.238 357.807 103.619 359.331Q104.001 360.855 104.457 362.358Q104.913 363.862 105.443 365.341Q105.972 366.82 106.573 368.272Q107.174 369.723 107.846 371.144Q108.518 372.564 109.258 373.949Q109.999 375.335 110.807 376.683Q111.614 378.03 112.487 379.336Q113.36 380.643 114.296 381.905Q115.232 383.167 116.229 384.381Q117.225 385.595 118.28 386.76Q119.335 387.924 120.446 389.035Q121.557 390.146 122.721 391.201Q123.886 392.256 125.1 393.252Q126.314 394.249 127.576 395.185Q128.838 396.121 130.145 396.994Q131.451 397.867 132.798 398.674Q134.146 399.482 135.532 400.223Q136.917 400.963 138.337 401.635Q139.758 402.307 141.209 402.908Q142.661 403.509 144.14 404.038Q145.619 404.568 147.123 405.024Q148.626 405.48 150.15 405.862Q151.674 406.243 153.215 406.55Q154.756 406.856 156.31 407.087Q157.864 407.317 159.428 407.471Q160.991 407.625 162.56 407.702Q164.129 407.78 165.701 407.78L354.448 407.78Q356.019 407.78 357.588 407.702Q359.158 407.625 360.721 407.471Q362.285 407.317 363.839 407.087Q365.393 406.856 366.934 406.55Q368.475 406.243 369.999 405.861Q371.523 405.48 373.026 405.024Q374.529 404.568 376.009 404.038Q377.488 403.509 378.939 402.908Q380.391 402.307 381.811 401.635Q383.231 400.963 384.617 400.223Q386.003 399.482 387.35 398.674Q388.698 397.867 390.004 396.994Q391.31 396.121 392.572 395.185Q393.834 394.249 395.049 393.252Q396.263 392.256 397.427 391.201Q398.591 390.146 399.702 389.035Q400.813 387.924 401.868 386.76Q402.923 385.595 403.92 384.381Q404.917 383.167 405.853 381.905Q406.789 380.643 407.661 379.336Q408.534 378.03 409.342 376.683Q410.15 375.335 410.89 373.949Q411.631 372.564 412.302 371.144Q412.974 369.723 413.576 368.272Q414.177 366.82 414.706 365.341Q415.235 363.862 415.691 362.358Q416.147 360.855 416.529 359.331Q416.911 357.807 417.217 356.266Q417.524 354.725 417.754 353.171Q417.985 351.617 418.139 350.054Q418.293 348.49 418.37 346.921Q418.447 345.352 418.447 343.781L418.447 265.813Q418.447 265.223 418.418 264.635Q418.389 264.046 418.332 263.46Q418.274 262.874 418.187 262.291Q418.101 261.708 417.986 261.13Q417.871 260.553 417.728 259.981Q417.585 259.41 417.414 258.846Q417.243 258.282 417.044 257.727Q416.846 257.173 416.62 256.628Q416.395 256.084 416.143 255.552Q415.891 255.019 415.613 254.499Q415.336 253.98 415.033 253.475Q414.73 252.969 414.403 252.479Q414.075 251.989 413.724 251.516Q413.373 251.043 413 250.588Q412.626 250.132 412.23 249.696Q411.835 249.259 411.418 248.843Q411.001 248.426 410.565 248.03Q410.128 247.635 409.673 247.261Q409.218 246.887 408.744 246.536Q408.271 246.185 407.781 245.858Q407.291 245.531 406.786 245.228Q406.281 244.925 405.761 244.647Q405.242 244.369 404.709 244.118Q404.176 243.866 403.632 243.64Q403.088 243.415 402.533 243.216Q401.978 243.018 401.415 242.847Q400.851 242.676 400.279 242.533Q399.708 242.39 399.13 242.275Q398.552 242.16 397.969 242.073Q397.387 241.987 396.8 241.929Q396.214 241.871 395.626 241.842Q395.037 241.813 394.448 241.813L280.745 241.813ZM381.568 166.966C381.559 169.624 381.565 172.282 381.542 174.94C381.532 176.143 381.505 177.346 381.467 178.548C381.437 179.488 381.395 180.427 381.341 181.365C381.294 182.164 381.235 182.962 381.164 183.759C381.101 184.464 381.025 185.169 380.937 185.872C380.368 190.392 379.204 194.992 376.547 198.766C376.066 199.45 375.54 200.1 374.97 200.711C374.118 201.625 373.169 202.448 372.147 203.167C370.683 204.197 369.076 205.013 367.404 205.648C364.124 206.893 360.621 207.471 357.14 207.783C352.548 208.195 347.922 208.19 343.312 208.186L343.311 208.186C342.322 208.185 341.334 208.184 340.347 208.187C339.36 208.184 338.371 208.185 337.383 208.186L337.382 208.186C332.772 208.19 328.146 208.195 323.555 207.783C320.073 207.471 316.57 206.893 313.29 205.648C311.618 205.013 310.011 204.197 308.547 203.167C307.526 202.448 306.577 201.625 305.724 200.711C305.153 200.099 304.628 199.45 304.147 198.766C301.49 194.992 300.326 190.392 299.757 185.872C299.669 185.169 299.593 184.465 299.53 183.759C299.459 182.962 299.4 182.164 299.353 181.366C299.299 180.427 299.257 179.488 299.227 178.549C299.19 177.346 299.162 176.144 299.152 174.941C299.129 172.283 299.135 169.625 299.127 166.966C299.135 164.309 299.129 161.651 299.152 158.993C299.162 157.79 299.19 156.587 299.227 155.385C299.257 154.445 299.299 153.506 299.353 152.568C299.4 151.769 299.459 150.971 299.53 150.174C299.593 149.469 299.669 148.764 299.757 148.061C300.326 143.541 301.49 138.941 304.146 135.167C304.628 134.483 305.153 133.833 305.724 133.222C306.577 132.308 307.525 131.485 308.547 130.766C310.011 129.736 311.618 128.92 313.29 128.285C316.57 127.04 320.073 126.462 323.555 126.15C328.146 125.738 332.772 125.742 337.382 125.747L337.383 125.747C338.372 125.748 339.36 125.749 340.347 125.746C343.005 125.754 345.662 125.748 348.32 125.771C349.523 125.782 350.726 125.809 351.929 125.847C352.868 125.876 353.807 125.918 354.746 125.973C355.544 126.019 356.342 126.078 357.139 126.15C357.845 126.213 358.549 126.288 359.252 126.377C363.772 126.945 368.372 128.109 372.146 130.766C372.83 131.247 373.48 131.773 374.092 132.344C375.006 133.196 375.828 134.145 376.547 135.167C377.578 136.631 378.394 138.237 379.029 139.909C380.274 143.19 380.852 146.693 381.164 150.174C381.576 154.765 381.571 159.391 381.566 164.001L381.566 164.001C381.565 164.991 381.564 165.979 381.568 166.966Z" id="Прямоугольник-4-Вычитание" fill="#2E2E30" fill-rule="evenodd" stroke="none" />
</svg>